<svg xmlns="http://www.w3.org/2000/svg" id="maestro" width="40" height="40" viewBox="0 0 40 40">
    <circle id="Ellipse_84" cx="20" cy="20" r="20" fill="#003473" data-name="Ellipse 84"></circle>
    <g id="Group_1433" data-name="Group 1433" transform="translate(5.075 11.009)">
        <path id="Path_953" d="M74.532 145.451a8.618 8.618 0 1 0-5.774 2.228 8.58 8.58 0 0 0 5.774-2.228z"
            fill="#009ddd" data-name="Path 953" transform="translate(-60.13 -130.442)"></path>
        <path id="Path_954" d="M230.767 169.629a8.615 8.615 0 0 0 0-12.781v12.781z" fill="#009ddd" data-name="Path 954"
            transform="translate(-216.365 -154.619)"></path>
    </g>
    <path id="Path_955"
        d="M207.993 130.446a8.619 8.619 0 0 0-5.792 2.229 11.071 11.071 0 0 0-.861.912h1.739a11.068 11.068 0 0 1 .659.911h-3.056q-.278.456-.507.912h4.052c.136.3.27.609.371.912h-4.777a8.247 8.247 0 0 0-.254.928h5.284a9.177 9.177 0 0 1 .186 1.823 8.674 8.674 0 0 1-.44 2.735h-4.777q.151.455.353.912h4.052a9.371 9.371 0 0 1-.49.912h-3.056a9.155 9.155 0 0 0 .659.912h1.739a8.871 8.871 0 0 1-.878.912 8.619 8.619 0 1 0 5.792-15.01z"
        fill="#ed1c2e" data-name="Path 955" transform="translate(-182.725 -119.436)"></path>
    <g id="Group_1434" data-name="Group 1434" transform="translate(7.945 17.409)">
        <path id="Path_956"
            d="M366.194 251.741a.282.282 0 0 1 .287-.27.266.266 0 0 1 .27.27.281.281 0 0 1-.27.287.3.3 0 0 1-.287-.287zm.287.22a.21.21 0 0 0 .2-.22.2.2 0 0 0-.2-.2.209.209 0 0 0-.219.2.223.223 0 0 0 .219.22zm-.034-.1h-.067v-.237h.1c.033 0 .051 0 .068.017s.033.033.033.051c0 .034-.017.068-.051.068l.051.1h-.068l-.033-.085h-.034v.085zm0-.135h.067v-.051h-.067v.051z"
            fill="#fff" data-name="Path 956" transform="translate(-343.233 -247.656)"></path>
        <path id="Path_957"
            d="M98.817 210.639h-1.08l.641-3.36-1.468 3.36h-.98l-.168-3.343-.641 3.343h-.98l.828-4.373h1.688l.084 2.7 1.183-2.7h1.736z"
            fill="#fff" data-name="Path 957" transform="translate(-94.14 -206.266)"></path>
        <path id="Path_958"
            d="M273.993 210.592a2.742 2.742 0 0 1-.777.117c-.54 0-.845-.27-.845-.776a2.39 2.39 0 0 1 .034-.321l.067-.355.052-.27.489-2.718h1.063l-.151.81h.556l-.152.862h-.557l-.27 1.485a.82.82 0 0 0-.034.152c0 .186.118.27.372.27a1.226 1.226 0 0 0 .287-.034l-.135.777z"
            fill="#fff" data-name="Path 958" transform="translate(-257.328 -206.27)"></path>
        <path id="Path_959"
            d="M298.364 215.535a.288.288 0 0 0-.118-.034c-.051-.017-.085-.017-.085-.034h-.118a1.11 1.11 0 0 0-.929.573l.1-.54h-.98l-.658 3.563h1.081c.388-2.179.54-2.567 1.063-2.567.034 0 .085.017.135.017l.118.033.389-1.012z"
            fill="#fff" data-name="Path 959" transform="translate(-278.577 -214.69)"></path>
        <path id="Path_960"
            d="M236.771 216.271c0 .439.254.76.828.98.439.185.507.236.507.405 0 .219-.2.321-.625.321a3.48 3.48 0 0 1-.98-.152l-.135.827h.051l.185.05c.067 0 .168.017.287.017a4.419 4.419 0 0 0 .608.033c1.131 0 1.672-.371 1.672-1.181 0-.49-.22-.777-.777-1-.456-.169-.507-.22-.507-.388 0-.185.186-.287.54-.287a7.071 7.071 0 0 1 .776.05l.152-.81a6.481 6.481 0 0 0-.946-.067c-1.215 0-1.638.539-1.638 1.2z"
            fill="#fff" data-name="Path 960" transform="translate(-224.362 -214.331)"></path>
        <path id="Path_961"
            d="M158.528 218.7h-.878l.017-.372a1.464 1.464 0 0 1-1.131.422.926.926 0 0 1-.979-.962c0-.862.691-1.368 1.891-1.368a4.164 4.164 0 0 1 .439.017.676.676 0 0 0 .034-.22c0-.236-.186-.321-.693-.321a4.536 4.536 0 0 0-.878.085l-.152.051-.1.016.152-.793a4.86 4.86 0 0 1 1.284-.186c.928 0 1.4.354 1.4 1.029a3.777 3.777 0 0 1-.084.71l-.22 1.266-.034.219-.034.186-.017.117-.017.1zm-.777-1.588a1.4 1.4 0 0 0-.236-.017c-.608 0-.912.186-.912.541a.345.345 0 0 0 .371.371.828.828 0 0 0 .777-.9z"
            fill="#fff" data-name="Path 961" transform="translate(-150.373 -214.324)"></path>
        <path id="Path_962"
            d="M200.88 218.42a4.087 4.087 0 0 1-1.1.152c-1.2 0-1.823-.557-1.823-1.6a1.944 1.944 0 0 1 1.875-2.11 1.278 1.278 0 0 1 1.436 1.283 3.628 3.628 0 0 1-.118.878h-2.145v.118c0 .405.3.624.929.624a2.852 2.852 0 0 0 1.114-.219l-.169.878zm-.573-2.11v-.186c0-.287-.186-.456-.507-.456-.338 0-.574.236-.676.642z"
            fill="#fff" data-name="Path 962" transform="translate(-189.197 -214.132)"></path>
        <path id="Path_963"
            d="M327.176 216.695a1.9 1.9 0 0 1-2.094 1.7 1.513 1.513 0 0 1-1.687-1.637 1.994 1.994 0 0 1 2.11-2.111 1.553 1.553 0 0 1 1.705 1.6 1.819 1.819 0 0 1-.034.44zm-1.114-.456c0-.371-.152-.708-.59-.708-.542 0-.879.641-.879 1.215 0 .473.237.794.608.794a1.047 1.047 0 0 0 .827-.861 1.864 1.864 0 0 0 .034-.44z"
            fill="#fff" data-name="Path 963" transform="translate(-304.046 -213.943)"></path>
    </g>
</svg>