<svg xmlns="http://www.w3.org/2000/svg" id="mastercard" width="40" height="40" viewBox="0 0 40 40">
        <circle id="Ellipse_86" cx="20" cy="20" r="20" fill="#3c80ad" data-name="Ellipse 86"></circle>
        <path id="Path_971"
                d="M59.55 121.955a8.333 8.333 0 1 0 5.648 14.5 8.368 8.368 0 0 0 .845-.893h-1.7a8.064 8.064 0 0 1-.62-.859h2.938a8.33 8.33 0 0 0 .485-.892h-3.91a8.118 8.118 0 0 1-.348-.875h4.6a8.316 8.316 0 0 0 .428-2.643 8.407 8.407 0 0 0-.191-1.785h-5.081a8.484 8.484 0 0 1 .237-.875h4.6a8.355 8.355 0 0 0-.359-.892h-3.886a8.041 8.041 0 0 1 .477-.875h2.936a8.281 8.281 0 0 0-.645-.892h-1.638a7.619 7.619 0 0 1 .834-.841 8.27 8.27 0 0 0-5.6-2.172z"
                fill="#931b1d" data-name="Path 971" transform="translate(-47.372 -110.825)"></path>
        <path id="Path_972" d="M214.009 130.291a8.315 8.315 0 1 1-16.631 0 8.315 8.315 0 1 1 16.631 0z" fill="#f16622"
                data-name="Path 972" transform="translate(-178.495 -110.824)"></path>
        <path id="Path_973" d="M214.009 131.5a8.315 8.315 0 1 1-16.631 0 8.315 8.315 0 1 1 16.631 0z" fill="#f7981d"
                data-name="Path 973" transform="translate(-178.495 -111.926)"></path>
        <path id="Path_974"
                d="M59.55 123.193a8.334 8.334 0 1 0 5.648 14.5 8.237 8.237 0 0 0 .845-.892h-1.7a8 8 0 0 1-.62-.858h2.938a8.4 8.4 0 0 0 .485-.893h-3.91a8.18 8.18 0 0 1-.348-.875h4.6a8.393 8.393 0 0 0 .237-4.428h-5.081a8.484 8.484 0 0 1 .237-.875h4.6a8.365 8.365 0 0 0-.359-.893h-3.886a8.117 8.117 0 0 1 .477-.875h2.936a8.432 8.432 0 0 0-.645-.892h-1.638a7.719 7.719 0 0 1 .834-.841 8.271 8.271 0 0 0-5.6-2.172z"
                fill="#cb2026" data-name="Path 974" transform="translate(-47.372 -111.949)"></path>
        <g id="Group_1437" data-name="Group 1437" transform="translate(4.705 17.457)">
                <path id="Path_975"
                        d="M182.8 212.878l.111-.754c-.061 0-.15.026-.228.026-.308 0-.342-.164-.322-.285l.249-1.539h.468l.113-.835h-.441l.09-.518h-.886c-.019.019-.523 2.918-.523 3.27a.658.658 0 0 0 .705.752 2.327 2.327 0 0 0 .664-.117z"
                        fill="#fff" data-name="Path 975" transform="translate(-170.852 -208.604)"></path>
                <path id="Path_976"
                        d="M203.035 216.523a1.391 1.391 0 0 0 1.529 1.552 2.24 2.24 0 0 0 .935-.146l.156-.856a2.738 2.738 0 0 1-.94.219c-.951 0-.784-.711-.784-.711h1.8a6.432 6.432 0 0 0 .116-.81 1.189 1.189 0 0 0-1.263-1.3c-.89.004-1.549.965-1.549 2.052zm1.553-1.253c.5 0 .407.563.407.608h-.983c0-.059.088-.609.576-.609z"
                        fill="#fff" data-name="Path 976" transform="translate(-190.475 -213.687)"></path>
                <path id="Path_977"
                        d="M268.15 208.423l.159-.968a2.119 2.119 0 0 1-.732.219.878.878 0 0 1-.88-1c0-1.048.54-1.625 1.142-1.625a1.574 1.574 0 0 1 .813.254l.144-.939a3.166 3.166 0 0 0-1-.218c-1.022 0-2.017.888-2.017 2.558 0 1.106.537 1.837 1.594 1.837a4.072 4.072 0 0 0 .777-.118z"
                        fill="#fff" data-name="Path 977" transform="translate(-247.628 -204.149)"></path>
                <path id="Path_978"
                        d="M115.683 214.654a3.059 3.059 0 0 0-1.073.2l-.128.765a2.8 2.8 0 0 1 .965-.156c.33 0 .571.037.571.306a.571.571 0 0 1-.029.223s-.26-.022-.38-.022c-.765 0-1.57.327-1.57 1.315a.841.841 0 0 0 .855.956 1.15 1.15 0 0 0 .908-.408l-.029.339h.779l.348-2.444a1.047 1.047 0 0 0-1.217-1.074zm.19 1.989c.017.149-.094.849-.627.849a.323.323 0 0 1-.347-.335c0-.243.132-.534.781-.534a.577.577 0 0 1 .193.02z"
                        fill="#fff" data-name="Path 978" transform="translate(-109.381 -213.852)"></path>
                <path id="Path_979"
                        d="M150.345 218.286c.2 0 1.339.051 1.339-1.128 0-1.1-1.055-.885-1.055-1.328 0-.22.172-.29.486-.29.125 0 .605.04.605.04l.112-.784a4.142 4.142 0 0 0-.817-.069c-.656 0-1.32.261-1.32 1.158 0 1.017 1.109.914 1.109 1.342 0 .286-.31.309-.549.309a2.877 2.877 0 0 1-.786-.135l-.118.775a2.768 2.768 0 0 0 .994.11z"
                        fill="#fff" data-name="Path 979" transform="translate(-141.575 -213.92)"></path>
                <path id="Path_980"
                        d="M362.2 205.422l-.191 1.187a1.17 1.17 0 0 0-.855-.461c-.812 0-1.488.98-1.488 2.106 0 .727.36 1.439 1.1 1.439a1.1 1.1 0 0 0 .824-.371l-.039.316h.861l.677-4.219zm-.411 2.316c0 .468-.232 1.094-.712 1.094-.319 0-.468-.268-.468-.689 0-.687.308-1.142.7-1.142.315-.001.479.22.479.737z"
                        fill="#fff" data-name="Path 980" transform="translate(-333.096 -205.323)"></path>
                <path id="Path_981"
                        d="M62.472 209.632l.54-3.186.079 3.186h.61l1.138-3.186-.5 3.186h.906l.7-4.224h-1.4L63.664 208l-.045-2.591h-1.292l-.708 4.224z"
                        fill="#fff" data-name="Path 981" transform="translate(-61.619 -205.312)"></path>
                <path id="Path_982"
                        d="M240.456 218.666c.258-1.468.305-2.661.921-2.444a3.439 3.439 0 0 1 .329-1.028.919.919 0 0 0-.171-.012c-.4 0-.69.543-.69.543l.078-.5h-.823l-.552 3.439z"
                        fill="#fff" data-name="Path 982" transform="translate(-223.805 -214.34)"></path>
                <path id="Path_983"
                        d="M303.646 214.654a3.056 3.056 0 0 0-1.072.2l-.128.765a2.792 2.792 0 0 1 .964-.156c.329 0 .571.037.571.306a.565.565 0 0 1-.03.223s-.26-.022-.381-.022c-.766 0-1.569.327-1.569 1.315a.841.841 0 0 0 .855.956 1.148 1.148 0 0 0 .908-.408l-.029.339h.78l.348-2.444a1.047 1.047 0 0 0-1.217-1.074zm.19 1.989c.017.149-.093.849-.627.849a.323.323 0 0 1-.346-.335c0-.243.132-.534.78-.534a.579.579 0 0 1 .193.02z"
                        fill="#fff" data-name="Path 983" transform="translate(-280.646 -213.852)"></path>
                <path id="Path_984"
                        d="M337.8 218.666c.258-1.468.306-2.661.921-2.444a3.417 3.417 0 0 1 .329-1.028.933.933 0 0 0-.171-.012c-.4 0-.69.543-.69.543l.079-.5h-.825l-.552 3.439h.909z"
                        fill="#fff" data-name="Path 984" transform="translate(-312.063 -214.34)"></path>
        </g>
</svg>